<?xml version="1.0" standalone="no"?>
<!DOCTYPE svg PUBLIC "-//W3C//DTD SVG 20010904//EN"
 "http://www.w3.org/TR/2001/REC-SVG-20010904/DTD/svg10.dtd">
<svg version="1.0" xmlns="http://www.w3.org/2000/svg"
 width="512.000000pt" height="512.000000pt" viewBox="0 0 512.000000 512.000000"
 preserveAspectRatio="xMidYMid meet">
<metadata>
Created by potrace 1.14, written by Peter Selinger 2001-2017
</metadata>
<g transform="translate(0.000000,512.000000) scale(0.100000,-0.100000)"
fill="#000000" stroke="none">
<path d="M3378 4625 c-215 -34 -401 -129 -565 -288 -182 -177 -292 -406 -311
-649 -7 -95 -2 -224 13 -301 l8 -39 -69 6 c-332 31 -597 92 -879 203 -427 167
-835 454 -1138 798 -39 44 -74 81 -77 83 -12 5 -90 -177 -112 -260 -39 -156
-39 -364 1 -520 26 -100 80 -222 138 -312 44 -69 197 -231 258 -274 l30 -21
-36 -1 c-87 0 -282 50 -376 99 -23 11 -45 21 -48 21 -12 0 -4 -131 14 -215 67
-322 271 -586 566 -731 61 -29 142 -62 180 -71 l70 -17 -55 -14 c-75 -18 -293
-27 -358 -14 l-54 10 6 -27 c13 -57 110 -231 171 -308 177 -221 445 -367 719
-390 l78 -6 -23 -19 c-80 -62 -222 -149 -340 -207 -318 -158 -662 -231 -1024
-218 l-160 6 85 -50 c365 -215 758 -347 1195 -400 136 -17 533 -17 670 -1 259
31 456 75 678 152 1036 357 1789 1313 1942 2465 9 66 18 203 21 305 l4 185 93
76 c117 97 278 264 356 370 33 46 59 84 57 86 -2 2 -45 -13 -95 -32 -110 -43
-250 -81 -383 -105 -54 -10 -98 -16 -98 -15 0 1 31 25 68 53 148 110 284 283
351 448 16 38 28 70 27 70 0 1 -64 -29 -141 -67 -137 -68 -307 -129 -452 -164
l-73 -17 -61 56 c-232 215 -551 310 -871 261z"/>
</g>
</svg>
